<mxfile host="app.diagrams.net" modified="2022-01-19T20:08:29.416Z" agent="5.0 (Windows NT 10.0; Win64; x64) AppleWebKit/537.36 (KHTML, like Gecko) Chrome/96.0.4664.110 Safari/537.36 OPR/82.0.4227.58" etag="qnLhxWymOKDIjKVuMGTP" version="16.4.0" type="github">
  <diagram id="JjP_drnzE-q3qPHSdkXT" name="Page-1">
    <mxGraphModel dx="1382" dy="764" grid="1" gridSize="10" guides="1" tooltips="1" connect="1" arrows="1" fold="1" page="1" pageScale="1" pageWidth="827" pageHeight="1169" math="0" shadow="0">
      <root>
        <mxCell id="0" />
        <mxCell id="1" parent="0" />
        <mxCell id="CL-JMRNS_x0aMDTHqTOq-6" style="edgeStyle=orthogonalEdgeStyle;rounded=0;orthogonalLoop=1;jettySize=auto;html=1;" edge="1" parent="1" source="CL-JMRNS_x0aMDTHqTOq-1" target="CL-JMRNS_x0aMDTHqTOq-5">
          <mxGeometry relative="1" as="geometry" />
        </mxCell>
        <mxCell id="CL-JMRNS_x0aMDTHqTOq-1" value="ESIP/SIP&lt;br&gt;(propagation of input constraints)" style="whiteSpace=wrap;html=1;aspect=fixed;" vertex="1" parent="1">
          <mxGeometry x="160" y="140" width="80" height="80" as="geometry" />
        </mxCell>
        <mxCell id="CL-JMRNS_x0aMDTHqTOq-7" style="edgeStyle=orthogonalEdgeStyle;rounded=0;orthogonalLoop=1;jettySize=auto;html=1;" edge="1" parent="1" source="CL-JMRNS_x0aMDTHqTOq-5" target="CL-JMRNS_x0aMDTHqTOq-8">
          <mxGeometry relative="1" as="geometry">
            <mxPoint x="360" y="110" as="targetPoint" />
          </mxGeometry>
        </mxCell>
        <mxCell id="CL-JMRNS_x0aMDTHqTOq-13" style="edgeStyle=orthogonalEdgeStyle;rounded=0;orthogonalLoop=1;jettySize=auto;html=1;" edge="1" parent="1" source="CL-JMRNS_x0aMDTHqTOq-5" target="CL-JMRNS_x0aMDTHqTOq-19">
          <mxGeometry relative="1" as="geometry">
            <mxPoint x="440" y="180" as="targetPoint" />
          </mxGeometry>
        </mxCell>
        <mxCell id="CL-JMRNS_x0aMDTHqTOq-17" style="edgeStyle=orthogonalEdgeStyle;rounded=0;orthogonalLoop=1;jettySize=auto;html=1;" edge="1" parent="1" source="CL-JMRNS_x0aMDTHqTOq-5" target="CL-JMRNS_x0aMDTHqTOq-15">
          <mxGeometry relative="1" as="geometry">
            <Array as="points">
              <mxPoint x="360" y="290" />
            </Array>
          </mxGeometry>
        </mxCell>
        <mxCell id="CL-JMRNS_x0aMDTHqTOq-5" value="LP solver and local gradient search" style="whiteSpace=wrap;html=1;aspect=fixed;" vertex="1" parent="1">
          <mxGeometry x="320" y="140" width="80" height="80" as="geometry" />
        </mxCell>
        <mxCell id="CL-JMRNS_x0aMDTHqTOq-8" value="&lt;b&gt;Safe&lt;/b&gt;" style="text;html=1;align=center;verticalAlign=middle;resizable=0;points=[];autosize=1;strokeColor=none;fillColor=none;" vertex="1" parent="1">
          <mxGeometry x="340" y="80" width="40" height="20" as="geometry" />
        </mxCell>
        <mxCell id="CL-JMRNS_x0aMDTHqTOq-9" value="&quot;unsat&quot;" style="text;html=1;align=center;verticalAlign=middle;resizable=0;points=[];autosize=1;strokeColor=none;fillColor=none;" vertex="1" parent="1">
          <mxGeometry x="360" y="110" width="50" height="20" as="geometry" />
        </mxCell>
        <mxCell id="CL-JMRNS_x0aMDTHqTOq-12" style="edgeStyle=orthogonalEdgeStyle;rounded=0;orthogonalLoop=1;jettySize=auto;html=1;" edge="1" parent="1" source="CL-JMRNS_x0aMDTHqTOq-11" target="CL-JMRNS_x0aMDTHqTOq-1">
          <mxGeometry relative="1" as="geometry" />
        </mxCell>
        <mxCell id="CL-JMRNS_x0aMDTHqTOq-11" value="image, input constraints,&lt;br&gt;correct classification" style="text;html=1;align=center;verticalAlign=middle;resizable=0;points=[];autosize=1;strokeColor=none;fillColor=none;" vertex="1" parent="1">
          <mxGeometry x="125" y="90" width="150" height="30" as="geometry" />
        </mxCell>
        <mxCell id="CL-JMRNS_x0aMDTHqTOq-14" value="&quot;sat&quot;" style="text;html=1;align=center;verticalAlign=middle;resizable=0;points=[];autosize=1;strokeColor=none;fillColor=none;" vertex="1" parent="1">
          <mxGeometry x="404" y="190" width="40" height="20" as="geometry" />
        </mxCell>
        <mxCell id="CL-JMRNS_x0aMDTHqTOq-16" style="edgeStyle=orthogonalEdgeStyle;rounded=0;orthogonalLoop=1;jettySize=auto;html=1;" edge="1" parent="1" source="CL-JMRNS_x0aMDTHqTOq-15" target="CL-JMRNS_x0aMDTHqTOq-1">
          <mxGeometry relative="1" as="geometry">
            <Array as="points">
              <mxPoint x="200" y="290" />
            </Array>
          </mxGeometry>
        </mxCell>
        <mxCell id="CL-JMRNS_x0aMDTHqTOq-24" style="edgeStyle=orthogonalEdgeStyle;rounded=0;orthogonalLoop=1;jettySize=auto;html=1;" edge="1" parent="1" source="CL-JMRNS_x0aMDTHqTOq-15" target="CL-JMRNS_x0aMDTHqTOq-25">
          <mxGeometry relative="1" as="geometry">
            <mxPoint x="120" y="300" as="targetPoint" />
            <Array as="points">
              <mxPoint x="180" y="300" />
              <mxPoint x="180" y="300" />
            </Array>
          </mxGeometry>
        </mxCell>
        <mxCell id="CL-JMRNS_x0aMDTHqTOq-15" value="Branch and bound" style="whiteSpace=wrap;html=1;aspect=fixed;fillColor=#d5e8d4;strokeColor=#82b366;" vertex="1" parent="1">
          <mxGeometry x="240" y="240" width="80" height="80" as="geometry" />
        </mxCell>
        <mxCell id="CL-JMRNS_x0aMDTHqTOq-18" value="&quot;undetermined&quot;" style="text;html=1;align=center;verticalAlign=middle;resizable=0;points=[];autosize=1;strokeColor=none;fillColor=none;" vertex="1" parent="1">
          <mxGeometry x="360" y="250" width="100" height="20" as="geometry" />
        </mxCell>
        <mxCell id="CL-JMRNS_x0aMDTHqTOq-19" value="&lt;b&gt;Unsafe&lt;/b&gt;" style="text;html=1;align=center;verticalAlign=middle;resizable=0;points=[];autosize=1;strokeColor=none;fillColor=none;" vertex="1" parent="1">
          <mxGeometry x="440" y="170" width="60" height="20" as="geometry" />
        </mxCell>
        <mxCell id="CL-JMRNS_x0aMDTHqTOq-20" value="output&lt;br&gt;constraints" style="text;html=1;align=center;verticalAlign=middle;resizable=0;points=[];autosize=1;strokeColor=none;fillColor=none;" vertex="1" parent="1">
          <mxGeometry x="245" y="150" width="70" height="30" as="geometry" />
        </mxCell>
        <mxCell id="CL-JMRNS_x0aMDTHqTOq-22" value="split&lt;br&gt;constraints" style="text;html=1;align=center;verticalAlign=middle;resizable=0;points=[];autosize=1;strokeColor=none;fillColor=none;" vertex="1" parent="1">
          <mxGeometry x="130" y="240" width="70" height="30" as="geometry" />
        </mxCell>
        <mxCell id="CL-JMRNS_x0aMDTHqTOq-25" value="&lt;b&gt;Timeout&lt;/b&gt;" style="text;html=1;align=center;verticalAlign=middle;resizable=0;points=[];autosize=1;strokeColor=none;fillColor=none;" vertex="1" parent="1">
          <mxGeometry x="65" y="290" width="60" height="20" as="geometry" />
        </mxCell>
      </root>
    </mxGraphModel>
  </diagram>
</mxfile>
